<svg width="1440" height="765" viewBox="0 0 1440 765" fill="none" xmlns="http://www.w3.org/2000/svg">
<path d="M878 0C878 49.2457 892.614 98.0092 921.008 143.506C949.402 189.003 991.02 230.343 1043.48 265.165C1095.95 299.987 1158.23 327.609 1226.78 346.455C1295.33 365.3 1368.8 375 1443 375L1443 0H878Z" fill="url(#paint0_radial_5_172)"/>
<path d="M538 765C538 694.349 524.084 624.389 497.047 559.116C470.01 493.843 430.381 434.534 380.423 384.577C330.466 334.619 271.157 294.99 205.884 267.953C140.61 240.916 70.6511 227 0 227V765H538Z" fill="url(#paint1_radial_5_172)" style="mix-blend-mode:difference"/>
<path d="M-6.10352e-05 442C58.0442 442 115.52 430.567 169.146 408.355C222.772 386.142 271.498 353.585 312.541 312.541C353.585 271.498 386.142 222.772 408.355 169.146C430.567 115.52 442 58.0443 442 0L-4.17147e-05 0L-6.10352e-05 442Z" fill="url(#paint2_radial_5_172)" fill-opacity="0.4"/>
<path d="M-112.195 186.416L111.416 -37.1949H335.026L558.636 186.416L446.831 298.221L335.026 186.416C273.278 124.667 173.164 124.667 111.416 186.416L-0.389612 298.221L-112.195 186.416Z" fill="#0F1F39"/>
<path d="M-0.389612 298.221L335.026 633.636L223.221 745.441L-112.195 410.026L-0.389612 298.221Z" fill="#0F1F39"/>
<path d="M446.831 298.221L558.636 410.026L446.831 521.831L335.026 410.026L446.831 298.221Z" fill="#0F1F39"/>
<defs>
<radialGradient id="paint0_radial_5_172" cx="0" cy="0" r="1" gradientUnits="userSpaceOnUse" gradientTransform="translate(1443 -1.2634e-05) rotate(90) scale(375 564.936)">
<stop stop-color="#4E6893" stop-opacity="0.4"/>
<stop offset="1" stop-color="#4E6893" stop-opacity="0"/>
</radialGradient>
<radialGradient id="paint1_radial_5_172" cx="0" cy="0" r="1" gradientUnits="userSpaceOnUse" gradientTransform="translate(-4.41816e-05 765) rotate(90) scale(538)">
<stop stop-color="#FF00D6" stop-opacity="0.2"/>
<stop offset="1" stop-color="#FF00D6" stop-opacity="0"/>
</radialGradient>
<radialGradient id="paint2_radial_5_172" cx="0" cy="0" r="1" gradientUnits="userSpaceOnUse" gradientTransform="rotate(-180) scale(442 442)">
<stop stop-color="#0C5153"/>
<stop offset="1" stop-color="#0C5153" stop-opacity="0"/>
</radialGradient>
</defs>
</svg>
