<svg width="600" height="648" viewBox="0 0 600 648" fill="none" xmlns="http://www.w3.org/2000/svg">
<g clip-path="url(#clip0_1_6081)">
<rect x="226.713" y="486.144" width="117.235" height="117.235" transform="rotate(-22.8004 226.713 486.144)" stroke="url(#paint0_linear_1_6081)" stroke-width="24"/>
<circle cx="94.5" cy="301.5" r="75.5" stroke="url(#paint1_linear_1_6081)" stroke-width="24"/>
<path d="M471.246 247.843L412.08 114.581L557.071 129.973L471.246 247.843Z" stroke="url(#paint2_linear_1_6081)" stroke-width="24"/>
<g filter="url(#filter0_bi_1_6081)">
<rect x="246" y="277" width="86" height="86" rx="12" fill="#00FF75"/>
<path fill-rule="evenodd" clip-rule="evenodd" d="M279 300H299L309 310V330L299 340H289V330H299V310L279 310V300ZM299.87 330.87H306.901L299.87 337.901V330.87ZM299.87 309.13V302.099L306.901 309.13H299.87Z" fill="#0F1F39"/>
<path d="M279 310V340H269V310H279Z" fill="#0F1F39"/>
</g>
<g filter="url(#filter1_bi_1_6081)">
<rect x="431" y="277" width="86" height="86" rx="12" fill="white" fill-opacity="0.06"/>
<path d="M459 310H490.667L485.667 326.667H464L459 310ZM459 310L457.75 305.833" stroke="#9A9A9A" stroke-width="2" stroke-linecap="round" stroke-linejoin="round"/>
<path d="M470.654 318.333H477.32" stroke="#9A9A9A" stroke-width="2" stroke-linecap="round" stroke-linejoin="round"/>
<path d="M472.333 332.5C472.333 333.881 471.214 335 469.833 335C468.453 335 467.333 333.881 467.333 332.5" stroke="#9A9A9A" stroke-width="2" stroke-linecap="round" stroke-linejoin="round"/>
<path d="M482.333 332.5C482.333 333.881 481.214 335 479.833 335C478.453 335 477.333 333.881 477.333 332.5" stroke="#9A9A9A" stroke-width="2" stroke-linecap="round" stroke-linejoin="round"/>
</g>
<g filter="url(#filter2_bi_1_6081)">
<rect x="246" y="462" width="86" height="86" rx="12" fill="white" fill-opacity="0.06"/>
<path d="M280.667 511.667V503.936C280.667 503.086 280.834 502.271 281.141 501.513M297.333 511.667V506.359M284.37 497.891C285.694 497.118 287.287 496.667 289 496.667C292.799 496.667 296.004 498.884 297.008 501.917" stroke="#9A9A9A" stroke-width="2" stroke-linecap="round" stroke-linejoin="round"/>
<path d="M285.667 513.333V509.706M292.333 513.333V504.755C292.333 503.049 290.841 501.667 289 501.667C287.159 501.667 285.667 503.049 285.667 504.755V506.079" stroke="#9A9A9A" stroke-width="2" stroke-linecap="round" stroke-linejoin="round"/>
<path d="M279 490H274V495" stroke="#9A9A9A" stroke-width="2" stroke-linecap="round" stroke-linejoin="round"/>
<path d="M299 490H304V495" stroke="#9A9A9A" stroke-width="2" stroke-linecap="round" stroke-linejoin="round"/>
<path d="M279 520H274V515" stroke="#9A9A9A" stroke-width="2" stroke-linecap="round" stroke-linejoin="round"/>
<path d="M299 520H304V515" stroke="#9A9A9A" stroke-width="2" stroke-linecap="round" stroke-linejoin="round"/>
</g>
<g filter="url(#filter3_bi_1_6081)">
<rect x="339" y="184" width="86" height="86" rx="12" fill="white" fill-opacity="0.06"/>
<path d="M397 220.333V233.667C397 238.269 393.269 242 388.667 242H375.333C370.731 242 367 238.269 367 233.667V220.333C367 215.731 370.731 212 375.333 212H388.667C393.269 212 397 215.731 397 220.333Z" stroke="#9A9A9A" stroke-width="2" stroke-linecap="round" stroke-linejoin="round"/>
<path d="M380.333 242C380.333 237 380.333 232 380.333 227C380.333 223.354 381.167 220.333 387 220.333" stroke="#9A9A9A" stroke-width="2" stroke-linecap="round" stroke-linejoin="round"/>
<path d="M377 228.667H380.333H387" stroke="#9A9A9A" stroke-width="2" stroke-linecap="round" stroke-linejoin="round"/>
</g>
<g filter="url(#filter4_bi_1_6081)">
<rect x="246" y="184" width="86" height="86" rx="12" fill="white" fill-opacity="0.06"/>
<path d="M289 218.683L289.017 218.665" stroke="#9A9A9A" stroke-width="2" stroke-linecap="round" stroke-linejoin="round"/>
<path d="M295.667 222.017L295.683 221.998" stroke="#9A9A9A" stroke-width="2" stroke-linecap="round" stroke-linejoin="round"/>
<path d="M282.333 222.017L282.35 221.998" stroke="#9A9A9A" stroke-width="2" stroke-linecap="round" stroke-linejoin="round"/>
<path d="M299 228.683L299.017 228.665" stroke="#9A9A9A" stroke-width="2" stroke-linecap="round" stroke-linejoin="round"/>
<path d="M279 228.683L279.017 228.665" stroke="#9A9A9A" stroke-width="2" stroke-linecap="round" stroke-linejoin="round"/>
<path d="M297.333 235.35L297.35 235.332" stroke="#9A9A9A" stroke-width="2" stroke-linecap="round" stroke-linejoin="round"/>
<path d="M280.667 235.35L280.683 235.332" stroke="#9A9A9A" stroke-width="2" stroke-linecap="round" stroke-linejoin="round"/>
<path d="M289 235.333L290.667 225.333" stroke="#9A9A9A" stroke-width="2" stroke-linecap="round" stroke-linejoin="round"/>
<path d="M283.167 240.335H275.667C273.574 237.549 272.333 234.086 272.333 230.333C272.333 221.129 279.795 213.667 289 213.667C298.205 213.667 305.667 221.129 305.667 230.333C305.667 234.086 304.426 237.549 302.333 240.335L294.833 240.333" stroke="#9A9A9A" stroke-width="2" stroke-linecap="round" stroke-linejoin="round"/>
<path d="M289 245.333C291.761 245.333 294 243.095 294 240.333C294 237.572 291.761 235.333 289 235.333C286.238 235.333 284 237.572 284 240.333C284 243.095 286.238 245.333 289 245.333Z" stroke="#9A9A9A" stroke-width="2" stroke-linecap="round" stroke-linejoin="round"/>
</g>
<g filter="url(#filter5_bi_1_6081)">
<rect x="153" y="462" width="86" height="86" rx="12" fill="white" fill-opacity="0.06"/>
<path d="M204.033 519.614L182.255 491.614C181.744 490.957 182.212 490 183.045 490H187.178C187.486 490 187.777 490.142 187.967 490.386L209.745 518.386C210.256 519.043 209.787 520 208.955 520H204.823C204.514 520 204.222 519.857 204.033 519.614Z" stroke="#9A9A9A" stroke-width="3.33333"/>
<path d="M209.333 490L182.667 520" stroke="#9A9A9A" stroke-width="3.33333" stroke-linecap="round"/>
</g>
<g filter="url(#filter6_bi_1_6081)">
<rect x="431" y="184" width="86" height="86" rx="12" fill="white" fill-opacity="0.06"/>
<path d="M462.333 238.667V215.333H464" stroke="#9A9A9A" stroke-width="2" stroke-linecap="round" stroke-linejoin="round"/>
<path d="M474 238.667V215.333H475.667" stroke="#9A9A9A" stroke-width="2" stroke-linecap="round" stroke-linejoin="round"/>
<path d="M469 215.333V238.667" stroke="#9A9A9A" stroke-width="2" stroke-linecap="round" stroke-linejoin="round"/>
<path d="M480.667 215.333V238.667" stroke="#9A9A9A" stroke-width="2" stroke-linecap="round" stroke-linejoin="round"/>
<path d="M485.667 215.333V238.667" stroke="#9A9A9A" stroke-width="2" stroke-linecap="round" stroke-linejoin="round"/>
<path d="M464 215.333V238.667H462.333" stroke="#9A9A9A" stroke-width="2" stroke-linecap="round" stroke-linejoin="round"/>
<path d="M475.667 215.333V238.667H474" stroke="#9A9A9A" stroke-width="2" stroke-linecap="round" stroke-linejoin="round"/>
</g>
<g filter="url(#filter7_bi_1_6081)">
<rect x="431" y="462" width="86" height="86" rx="12" fill="#FF00D6"/>
<path fill-rule="evenodd" clip-rule="evenodd" d="M474 487.083C464.105 487.083 456.083 495.105 456.083 505C456.083 514.895 464.105 522.917 474 522.917C483.895 522.917 491.917 514.895 491.917 505C491.917 495.105 483.895 487.083 474 487.083ZM475.25 494.167C475.25 493.476 474.69 492.917 474 492.917C473.31 492.917 472.75 493.476 472.75 494.167V496.005C471.891 496.133 471.051 496.43 470.338 496.97C469.217 497.819 468.583 499.139 468.583 500.833C468.583 501.659 468.775 502.393 469.154 503.027C469.528 503.653 470.044 504.116 470.595 504.466C471.616 505.116 472.918 505.47 473.993 505.763L474.088 505.789C475.287 506.116 476.229 506.385 476.897 506.81C477.205 507.006 477.406 507.208 477.533 507.421C477.656 507.627 477.75 507.909 477.75 508.333C477.75 509.349 477.341 509.987 476.743 510.406C476.095 510.86 475.135 511.108 474.045 511.069C472.375 511.009 470.785 510.296 470 509.25C469.586 508.698 468.802 508.586 468.25 509C467.698 509.414 467.586 510.198 468 510.75C469.116 512.238 470.929 513.125 472.75 513.441V515.833C472.75 516.524 473.31 517.083 474 517.083C474.69 517.083 475.25 516.524 475.25 515.833V513.515C476.296 513.389 477.319 513.054 478.177 512.453C479.439 511.57 480.25 510.17 480.25 508.333C480.25 507.508 480.058 506.774 479.68 506.14C479.305 505.513 478.789 505.051 478.239 504.701C477.218 504.051 475.916 503.696 474.841 503.403L474.746 503.377C473.547 503.05 472.604 502.782 471.937 502.357C471.628 502.16 471.428 501.958 471.301 501.745C471.178 501.539 471.083 501.258 471.083 500.833C471.083 499.811 471.434 499.276 471.847 498.963C472.312 498.61 473.04 498.406 473.966 498.431C475.548 498.473 477.236 499.17 478.116 500.05C478.604 500.539 479.396 500.539 479.884 500.05C480.372 499.562 480.372 498.771 479.884 498.283C478.747 497.145 476.998 496.344 475.25 496.051V494.167Z" fill="#0F1F39"/>
</g>
<g filter="url(#filter8_bi_1_6081)">
<rect x="61" y="92" width="86" height="86" rx="12" fill="#5956F5"/>
<path d="M104 151.667C113.205 151.667 120.667 144.205 120.667 135C120.667 125.795 113.205 118.333 104 118.333C94.7953 118.333 87.3333 125.795 87.3333 135C87.3333 144.205 94.7953 151.667 104 151.667Z" stroke="#0F1F39" stroke-width="3.33333" stroke-linecap="round" stroke-linejoin="round"/>
<path d="M88.1667 135.833L97.3333 139.167L95.6667 145L97.3333 150" stroke="#0F1F39" stroke-width="3.33333" stroke-linecap="round" stroke-linejoin="round"/>
<path d="M112.333 149.167L111.5 145L107.333 143.333V137.5L112.333 135.833L119.833 136.667" stroke="#0F1F39" stroke-width="3.33333" stroke-linecap="round" stroke-linejoin="round"/>
<path d="M115.667 124.167L114.833 126.667L109 127.5V132.5L113.167 130.833H116.5L119.833 132.5" stroke="#0F1F39" stroke-width="3.33333" stroke-linecap="round" stroke-linejoin="round"/>
<path d="M88.1667 132.5L92.3333 129.167L96.5 128.333L99.8333 123.333L98.1667 120" stroke="#0F1F39" stroke-width="3.33333" stroke-linecap="round" stroke-linejoin="round"/>
</g>
<g filter="url(#filter9_bi_1_6081)">
<rect x="246" y="370" width="86" height="86" rx="12" fill="white" fill-opacity="0.06"/>
<path d="M274 409.667V424.667C274 426.508 275.492 428 277.333 428H300.667C302.508 428 304 426.508 304 424.667V409.667" stroke="#9A9A9A" stroke-width="2"/>
<path d="M293.722 428V418C293.722 416.159 292.23 414.667 290.389 414.667H287.055C285.215 414.667 283.722 416.159 283.722 418V428" stroke="#9A9A9A" stroke-width="2" stroke-miterlimit="16"/>
<path d="M305.364 408.607L302.541 398.725C302.418 398.296 302.026 398 301.579 398H294.833L295.626 407.506C295.652 407.817 295.821 408.098 296.089 408.258C296.738 408.645 298.009 409.362 299 409.667C300.693 410.187 303.168 410 304.578 409.826C305.164 409.754 305.526 409.175 305.364 408.607Z" stroke="#9A9A9A" stroke-width="2"/>
<path d="M292.333 409.667C293.279 409.376 294.48 408.71 295.152 408.313C295.471 408.125 295.647 407.768 295.617 407.398L294.833 398H283.167L282.383 407.398C282.353 407.768 282.529 408.125 282.848 408.313C283.52 408.71 284.721 409.376 285.667 409.667C288.155 410.432 289.845 410.432 292.333 409.667Z" stroke="#9A9A9A" stroke-width="2"/>
<path d="M275.459 398.725L272.636 408.607C272.474 409.175 272.836 409.754 273.423 409.826C274.832 410 277.307 410.187 279 409.667C279.991 409.362 281.263 408.645 281.911 408.258C282.179 408.098 282.349 407.817 282.374 407.506L283.167 398H276.421C275.974 398 275.582 398.296 275.459 398.725Z" stroke="#9A9A9A" stroke-width="2"/>
</g>
<g filter="url(#filter10_bi_1_6081)">
<rect x="339" y="92" width="86" height="86" rx="12" fill="white" fill-opacity="0.06"/>
<path d="M387 135V140" stroke="#9A9A9A" stroke-width="2" stroke-linecap="round" stroke-linejoin="round"/>
<path d="M382 120V125" stroke="#9A9A9A" stroke-width="2" stroke-linecap="round" stroke-linejoin="round"/>
<path d="M392 135V140" stroke="#9A9A9A" stroke-width="2" stroke-linecap="round" stroke-linejoin="round"/>
<path d="M382 145H397" stroke="#9A9A9A" stroke-width="2" stroke-linecap="round" stroke-linejoin="round"/>
<path d="M392 150H397" stroke="#9A9A9A" stroke-width="2" stroke-linecap="round" stroke-linejoin="round"/>
<path d="M372 135H377" stroke="#9A9A9A" stroke-width="2" stroke-linecap="round" stroke-linejoin="round"/>
<path d="M372 125.019L372.017 125" stroke="#9A9A9A" stroke-width="2" stroke-linecap="round" stroke-linejoin="round"/>
<path d="M382 135.018L382.017 135" stroke="#9A9A9A" stroke-width="2" stroke-linecap="round" stroke-linejoin="round"/>
<path d="M367 135.018L367.017 135" stroke="#9A9A9A" stroke-width="2" stroke-linecap="round" stroke-linejoin="round"/>
<path d="M382 130.019L382.017 130" stroke="#9A9A9A" stroke-width="2" stroke-linecap="round" stroke-linejoin="round"/>
<path d="M382 140.018L382.017 140" stroke="#9A9A9A" stroke-width="2" stroke-linecap="round" stroke-linejoin="round"/>
<path d="M387 150.019L387.017 150" stroke="#9A9A9A" stroke-width="2" stroke-linecap="round" stroke-linejoin="round"/>
<path d="M382 150.019L382.017 150" stroke="#9A9A9A" stroke-width="2" stroke-linecap="round" stroke-linejoin="round"/>
<path d="M397 135.018L397.017 135" stroke="#9A9A9A" stroke-width="2" stroke-linecap="round" stroke-linejoin="round"/>
<path d="M397 140.018L397.017 140" stroke="#9A9A9A" stroke-width="2" stroke-linecap="round" stroke-linejoin="round"/>
<path d="M392 125.019L392.017 125" stroke="#9A9A9A" stroke-width="2" stroke-linecap="round" stroke-linejoin="round"/>
<path d="M377 121V129C377 129.552 376.552 130 376 130H368C367.448 130 367 129.552 367 129V121C367 120.448 367.448 120 368 120H376C376.552 120 377 120.448 377 121Z" stroke="#9A9A9A" stroke-width="2" stroke-linecap="round" stroke-linejoin="round"/>
<path d="M397 121V129C397 129.552 396.552 130 396 130H388C387.448 130 387 129.552 387 129V121C387 120.448 387.448 120 388 120H396C396.552 120 397 120.448 397 121Z" stroke="#9A9A9A" stroke-width="2" stroke-linecap="round" stroke-linejoin="round"/>
<path d="M372 145.019L372.017 145" stroke="#9A9A9A" stroke-width="2" stroke-linecap="round" stroke-linejoin="round"/>
<path d="M377 141V149C377 149.552 376.552 150 376 150H368C367.448 150 367 149.552 367 149V141C367 140.448 367.448 140 368 140H376C376.552 140 377 140.448 377 141Z" stroke="#9A9A9A" stroke-width="2" stroke-linecap="round" stroke-linejoin="round"/>
</g>
<g filter="url(#filter11_bi_1_6081)">
<rect x="61" y="184" width="86" height="86" rx="12" fill="white" fill-opacity="0.06"/>
<path d="M109 218.667C110.841 218.667 112.333 217.174 112.333 215.333C112.333 213.492 110.841 212 109 212C107.159 212 105.667 213.492 105.667 215.333C105.667 217.174 107.159 218.667 109 218.667Z" stroke="#9A9A9A" stroke-width="2" stroke-linecap="round" stroke-linejoin="round"/>
<path d="M105.022 220.778L99.5084 227.67L106.401 234.562L102.955 242.143" stroke="#9A9A9A" stroke-width="2" stroke-linecap="round" stroke-linejoin="round"/>
<path d="M94.684 222.846L100.329 217.332L105.022 220.778L109.847 226.292H116.049" stroke="#9A9A9A" stroke-width="2" stroke-linecap="round" stroke-linejoin="round"/>
<path d="M98.8192 233.184L96.7516 234.562H91.238" stroke="#9A9A9A" stroke-width="2" stroke-linecap="round" stroke-linejoin="round"/>
</g>
<g filter="url(#filter12_bi_1_6081)">
<rect x="246" y="92" width="86" height="86" rx="12" fill="white" fill-opacity="0.06"/>
<path d="M289 141.667C292.682 141.667 295.667 138.682 295.667 135C295.667 131.318 292.682 128.333 289 128.333C285.318 128.333 282.333 131.318 282.333 135C282.333 138.682 285.318 141.667 289 141.667Z" stroke="#9A9A9A" stroke-width="2" stroke-linecap="round" stroke-linejoin="round"/>
<path d="M274 141.667V128.333C274 123.731 277.731 120 282.333 120H295.667C300.269 120 304 123.731 304 128.333V141.667C304 146.269 300.269 150 295.667 150H282.333C277.731 150 274 146.269 274 141.667Z" stroke="#9A9A9A" stroke-width="2"/>
<path d="M298.167 125.85L298.183 125.832" stroke="#9A9A9A" stroke-width="2" stroke-linecap="round" stroke-linejoin="round"/>
</g>
<g filter="url(#filter13_bi_1_6081)">
<rect x="61" y="277" width="86" height="86" rx="12" fill="white" fill-opacity="0.06"/>
<path d="M115.667 333.333H92.3333C90.4924 333.333 89 331.841 89 330V315C89 313.159 90.4924 311.667 92.3333 311.667H115.667C117.508 311.667 119 313.159 119 315V330C119 331.841 117.508 333.333 115.667 333.333Z" stroke="#9A9A9A" stroke-width="2"/>
<path d="M111.5 323.333C111.04 323.333 110.667 322.96 110.667 322.5C110.667 322.04 111.04 321.667 111.5 321.667C111.96 321.667 112.333 322.04 112.333 322.5C112.333 322.96 111.96 323.333 111.5 323.333Z" fill="#9A9A9A" stroke="#9A9A9A" stroke-width="2" stroke-linecap="round" stroke-linejoin="round"/>
<path d="M114 311.667V309.339C114 307.149 111.924 305.554 109.808 306.118L91.4745 311.007C90.0153 311.396 89 312.718 89 314.228V315" stroke="#9A9A9A" stroke-width="2"/>
</g>
<g filter="url(#filter14_bi_1_6081)">
<rect x="61" y="370" width="86" height="86" rx="12" fill="white" fill-opacity="0.06"/>
<path d="M95.6667 423V421.333C95.6667 416.731 99.3976 413 104 413C108.602 413 112.333 416.731 112.333 421.333V423" stroke="#9A9A9A" stroke-width="2" stroke-linecap="round" stroke-linejoin="round"/>
<path d="M85.6667 423V421.333C85.6667 418.572 87.9052 416.333 90.6667 416.333" stroke="#9A9A9A" stroke-width="2" stroke-linecap="round" stroke-linejoin="round"/>
<path d="M122.333 423V421.333C122.333 418.572 120.095 416.333 117.333 416.333" stroke="#9A9A9A" stroke-width="2" stroke-linecap="round" stroke-linejoin="round"/>
<path d="M104 413C106.761 413 109 410.761 109 408C109 405.239 106.761 403 104 403C101.238 403 99 405.239 99 408C99 410.761 101.238 413 104 413Z" stroke="#9A9A9A" stroke-width="2" stroke-linecap="round" stroke-linejoin="round"/>
<path d="M90.6667 416.333C92.5076 416.333 94 414.841 94 413C94 411.159 92.5076 409.667 90.6667 409.667C88.8257 409.667 87.3333 411.159 87.3333 413C87.3333 414.841 88.8257 416.333 90.6667 416.333Z" stroke="#9A9A9A" stroke-width="2" stroke-linecap="round" stroke-linejoin="round"/>
<path d="M117.333 416.333C119.174 416.333 120.667 414.841 120.667 413C120.667 411.159 119.174 409.667 117.333 409.667C115.492 409.667 114 411.159 114 413C114 414.841 115.492 416.333 117.333 416.333Z" stroke="#9A9A9A" stroke-width="2" stroke-linecap="round" stroke-linejoin="round"/>
</g>
<g filter="url(#filter15_bi_1_6081)">
<rect x="153" y="370" width="86" height="86" rx="12" fill="white" fill-opacity="0.06"/>
<path d="M211 401.333L179.333 413.833L191 415.5M211 401.333L206.833 426.333L191 415.5M211 401.333L191 415.5M191 415.5V424.667L196.415 419.205" stroke="#9A9A9A" stroke-width="2" stroke-linecap="round" stroke-linejoin="round"/>
</g>
<g filter="url(#filter16_bi_1_6081)">
<rect x="431" y="370" width="86" height="86" rx="12" fill="white" fill-opacity="0.06"/>
<path d="M462.333 423L459.217 401.187C459.094 400.325 459.656 399.521 460.507 399.332L473.277 396.494C473.753 396.388 474.247 396.388 474.723 396.494L487.493 399.332C488.344 399.521 488.906 400.325 488.783 401.187L485.667 423C485.549 423.825 484.833 428.833 474 428.833C463.167 428.833 462.451 423.825 462.333 423Z" stroke="#9A9A9A" stroke-width="2" stroke-linecap="round" stroke-linejoin="round"/>
</g>
<path d="M246 320H222C208.745 320 198 309.255 198 296V160C198 146.745 187.255 136 174 136H147" stroke="url(#paint3_linear_1_6081)" stroke-width="3"/>
<path d="M332 320H362.772C376.027 320 386.772 330.745 386.772 344V481C386.772 494.255 397.517 505 410.772 505H432" stroke="url(#paint4_linear_1_6081)" stroke-width="3"/>
</g>
<defs>
<filter id="filter0_bi_1_6081" x="214" y="245" width="150" height="150" filterUnits="userSpaceOnUse" color-interpolation-filters="sRGB">
<feFlood flood-opacity="0" result="BackgroundImageFix"/>
<feGaussianBlur in="BackgroundImageFix" stdDeviation="16"/>
<feComposite in2="SourceAlpha" operator="in" result="effect1_backgroundBlur_1_6081"/>
<feBlend mode="normal" in="SourceGraphic" in2="effect1_backgroundBlur_1_6081" result="shape"/>
<feColorMatrix in="SourceAlpha" type="matrix" values="0 0 0 0 0 0 0 0 0 0 0 0 0 0 0 0 0 0 127 0" result="hardAlpha"/>
<feOffset/>
<feGaussianBlur stdDeviation="1"/>
<feComposite in2="hardAlpha" operator="arithmetic" k2="-1" k3="1"/>
<feColorMatrix type="matrix" values="0 0 0 0 0 0 0 0 0 1 0 0 0 0 0.46 0 0 0 0.5 0"/>
<feBlend mode="normal" in2="shape" result="effect2_innerShadow_1_6081"/>
</filter>
<filter id="filter1_bi_1_6081" x="367" y="213" width="214" height="214" filterUnits="userSpaceOnUse" color-interpolation-filters="sRGB">
<feFlood flood-opacity="0" result="BackgroundImageFix"/>
<feGaussianBlur in="BackgroundImageFix" stdDeviation="32"/>
<feComposite in2="SourceAlpha" operator="in" result="effect1_backgroundBlur_1_6081"/>
<feBlend mode="normal" in="SourceGraphic" in2="effect1_backgroundBlur_1_6081" result="shape"/>
<feColorMatrix in="SourceAlpha" type="matrix" values="0 0 0 0 0 0 0 0 0 0 0 0 0 0 0 0 0 0 127 0" result="hardAlpha"/>
<feOffset/>
<feGaussianBlur stdDeviation="1"/>
<feComposite in2="hardAlpha" operator="arithmetic" k2="-1" k3="1"/>
<feColorMatrix type="matrix" values="0 0 0 0 1 0 0 0 0 1 0 0 0 0 1 0 0 0 0.5 0"/>
<feBlend mode="normal" in2="shape" result="effect2_innerShadow_1_6081"/>
</filter>
<filter id="filter2_bi_1_6081" x="182" y="398" width="214" height="214" filterUnits="userSpaceOnUse" color-interpolation-filters="sRGB">
<feFlood flood-opacity="0" result="BackgroundImageFix"/>
<feGaussianBlur in="BackgroundImageFix" stdDeviation="32"/>
<feComposite in2="SourceAlpha" operator="in" result="effect1_backgroundBlur_1_6081"/>
<feBlend mode="normal" in="SourceGraphic" in2="effect1_backgroundBlur_1_6081" result="shape"/>
<feColorMatrix in="SourceAlpha" type="matrix" values="0 0 0 0 0 0 0 0 0 0 0 0 0 0 0 0 0 0 127 0" result="hardAlpha"/>
<feOffset/>
<feGaussianBlur stdDeviation="1"/>
<feComposite in2="hardAlpha" operator="arithmetic" k2="-1" k3="1"/>
<feColorMatrix type="matrix" values="0 0 0 0 1 0 0 0 0 1 0 0 0 0 1 0 0 0 0.5 0"/>
<feBlend mode="normal" in2="shape" result="effect2_innerShadow_1_6081"/>
</filter>
<filter id="filter3_bi_1_6081" x="275" y="120" width="214" height="214" filterUnits="userSpaceOnUse" color-interpolation-filters="sRGB">
<feFlood flood-opacity="0" result="BackgroundImageFix"/>
<feGaussianBlur in="BackgroundImageFix" stdDeviation="32"/>
<feComposite in2="SourceAlpha" operator="in" result="effect1_backgroundBlur_1_6081"/>
<feBlend mode="normal" in="SourceGraphic" in2="effect1_backgroundBlur_1_6081" result="shape"/>
<feColorMatrix in="SourceAlpha" type="matrix" values="0 0 0 0 0 0 0 0 0 0 0 0 0 0 0 0 0 0 127 0" result="hardAlpha"/>
<feOffset/>
<feGaussianBlur stdDeviation="1"/>
<feComposite in2="hardAlpha" operator="arithmetic" k2="-1" k3="1"/>
<feColorMatrix type="matrix" values="0 0 0 0 1 0 0 0 0 1 0 0 0 0 1 0 0 0 0.5 0"/>
<feBlend mode="normal" in2="shape" result="effect2_innerShadow_1_6081"/>
</filter>
<filter id="filter4_bi_1_6081" x="182" y="120" width="214" height="214" filterUnits="userSpaceOnUse" color-interpolation-filters="sRGB">
<feFlood flood-opacity="0" result="BackgroundImageFix"/>
<feGaussianBlur in="BackgroundImageFix" stdDeviation="32"/>
<feComposite in2="SourceAlpha" operator="in" result="effect1_backgroundBlur_1_6081"/>
<feBlend mode="normal" in="SourceGraphic" in2="effect1_backgroundBlur_1_6081" result="shape"/>
<feColorMatrix in="SourceAlpha" type="matrix" values="0 0 0 0 0 0 0 0 0 0 0 0 0 0 0 0 0 0 127 0" result="hardAlpha"/>
<feOffset/>
<feGaussianBlur stdDeviation="1"/>
<feComposite in2="hardAlpha" operator="arithmetic" k2="-1" k3="1"/>
<feColorMatrix type="matrix" values="0 0 0 0 1 0 0 0 0 1 0 0 0 0 1 0 0 0 0.5 0"/>
<feBlend mode="normal" in2="shape" result="effect2_innerShadow_1_6081"/>
</filter>
<filter id="filter5_bi_1_6081" x="89" y="398" width="214" height="214" filterUnits="userSpaceOnUse" color-interpolation-filters="sRGB">
<feFlood flood-opacity="0" result="BackgroundImageFix"/>
<feGaussianBlur in="BackgroundImageFix" stdDeviation="32"/>
<feComposite in2="SourceAlpha" operator="in" result="effect1_backgroundBlur_1_6081"/>
<feBlend mode="normal" in="SourceGraphic" in2="effect1_backgroundBlur_1_6081" result="shape"/>
<feColorMatrix in="SourceAlpha" type="matrix" values="0 0 0 0 0 0 0 0 0 0 0 0 0 0 0 0 0 0 127 0" result="hardAlpha"/>
<feOffset/>
<feGaussianBlur stdDeviation="1"/>
<feComposite in2="hardAlpha" operator="arithmetic" k2="-1" k3="1"/>
<feColorMatrix type="matrix" values="0 0 0 0 1 0 0 0 0 1 0 0 0 0 1 0 0 0 0.5 0"/>
<feBlend mode="normal" in2="shape" result="effect2_innerShadow_1_6081"/>
</filter>
<filter id="filter6_bi_1_6081" x="367" y="120" width="214" height="214" filterUnits="userSpaceOnUse" color-interpolation-filters="sRGB">
<feFlood flood-opacity="0" result="BackgroundImageFix"/>
<feGaussianBlur in="BackgroundImageFix" stdDeviation="32"/>
<feComposite in2="SourceAlpha" operator="in" result="effect1_backgroundBlur_1_6081"/>
<feBlend mode="normal" in="SourceGraphic" in2="effect1_backgroundBlur_1_6081" result="shape"/>
<feColorMatrix in="SourceAlpha" type="matrix" values="0 0 0 0 0 0 0 0 0 0 0 0 0 0 0 0 0 0 127 0" result="hardAlpha"/>
<feOffset/>
<feGaussianBlur stdDeviation="1"/>
<feComposite in2="hardAlpha" operator="arithmetic" k2="-1" k3="1"/>
<feColorMatrix type="matrix" values="0 0 0 0 1 0 0 0 0 1 0 0 0 0 1 0 0 0 0.5 0"/>
<feBlend mode="normal" in2="shape" result="effect2_innerShadow_1_6081"/>
</filter>
<filter id="filter7_bi_1_6081" x="399" y="430" width="150" height="150" filterUnits="userSpaceOnUse" color-interpolation-filters="sRGB">
<feFlood flood-opacity="0" result="BackgroundImageFix"/>
<feGaussianBlur in="BackgroundImageFix" stdDeviation="16"/>
<feComposite in2="SourceAlpha" operator="in" result="effect1_backgroundBlur_1_6081"/>
<feBlend mode="normal" in="SourceGraphic" in2="effect1_backgroundBlur_1_6081" result="shape"/>
<feColorMatrix in="SourceAlpha" type="matrix" values="0 0 0 0 0 0 0 0 0 0 0 0 0 0 0 0 0 0 127 0" result="hardAlpha"/>
<feOffset/>
<feGaussianBlur stdDeviation="1"/>
<feComposite in2="hardAlpha" operator="arithmetic" k2="-1" k3="1"/>
<feColorMatrix type="matrix" values="0 0 0 0 0 0 0 0 0 1 0 0 0 0 0.46 0 0 0 0.5 0"/>
<feBlend mode="normal" in2="shape" result="effect2_innerShadow_1_6081"/>
</filter>
<filter id="filter8_bi_1_6081" x="29" y="60" width="150" height="150" filterUnits="userSpaceOnUse" color-interpolation-filters="sRGB">
<feFlood flood-opacity="0" result="BackgroundImageFix"/>
<feGaussianBlur in="BackgroundImageFix" stdDeviation="16"/>
<feComposite in2="SourceAlpha" operator="in" result="effect1_backgroundBlur_1_6081"/>
<feBlend mode="normal" in="SourceGraphic" in2="effect1_backgroundBlur_1_6081" result="shape"/>
<feColorMatrix in="SourceAlpha" type="matrix" values="0 0 0 0 0 0 0 0 0 0 0 0 0 0 0 0 0 0 127 0" result="hardAlpha"/>
<feOffset/>
<feGaussianBlur stdDeviation="1"/>
<feComposite in2="hardAlpha" operator="arithmetic" k2="-1" k3="1"/>
<feColorMatrix type="matrix" values="0 0 0 0 0 0 0 0 0 1 0 0 0 0 0.46 0 0 0 0.5 0"/>
<feBlend mode="normal" in2="shape" result="effect2_innerShadow_1_6081"/>
</filter>
<filter id="filter9_bi_1_6081" x="182" y="306" width="214" height="214" filterUnits="userSpaceOnUse" color-interpolation-filters="sRGB">
<feFlood flood-opacity="0" result="BackgroundImageFix"/>
<feGaussianBlur in="BackgroundImageFix" stdDeviation="32"/>
<feComposite in2="SourceAlpha" operator="in" result="effect1_backgroundBlur_1_6081"/>
<feBlend mode="normal" in="SourceGraphic" in2="effect1_backgroundBlur_1_6081" result="shape"/>
<feColorMatrix in="SourceAlpha" type="matrix" values="0 0 0 0 0 0 0 0 0 0 0 0 0 0 0 0 0 0 127 0" result="hardAlpha"/>
<feOffset/>
<feGaussianBlur stdDeviation="1"/>
<feComposite in2="hardAlpha" operator="arithmetic" k2="-1" k3="1"/>
<feColorMatrix type="matrix" values="0 0 0 0 1 0 0 0 0 1 0 0 0 0 1 0 0 0 0.5 0"/>
<feBlend mode="normal" in2="shape" result="effect2_innerShadow_1_6081"/>
</filter>
<filter id="filter10_bi_1_6081" x="275" y="28" width="214" height="214" filterUnits="userSpaceOnUse" color-interpolation-filters="sRGB">
<feFlood flood-opacity="0" result="BackgroundImageFix"/>
<feGaussianBlur in="BackgroundImageFix" stdDeviation="32"/>
<feComposite in2="SourceAlpha" operator="in" result="effect1_backgroundBlur_1_6081"/>
<feBlend mode="normal" in="SourceGraphic" in2="effect1_backgroundBlur_1_6081" result="shape"/>
<feColorMatrix in="SourceAlpha" type="matrix" values="0 0 0 0 0 0 0 0 0 0 0 0 0 0 0 0 0 0 127 0" result="hardAlpha"/>
<feOffset/>
<feGaussianBlur stdDeviation="1"/>
<feComposite in2="hardAlpha" operator="arithmetic" k2="-1" k3="1"/>
<feColorMatrix type="matrix" values="0 0 0 0 1 0 0 0 0 1 0 0 0 0 1 0 0 0 0.5 0"/>
<feBlend mode="normal" in2="shape" result="effect2_innerShadow_1_6081"/>
</filter>
<filter id="filter11_bi_1_6081" x="-3" y="120" width="214" height="214" filterUnits="userSpaceOnUse" color-interpolation-filters="sRGB">
<feFlood flood-opacity="0" result="BackgroundImageFix"/>
<feGaussianBlur in="BackgroundImageFix" stdDeviation="32"/>
<feComposite in2="SourceAlpha" operator="in" result="effect1_backgroundBlur_1_6081"/>
<feBlend mode="normal" in="SourceGraphic" in2="effect1_backgroundBlur_1_6081" result="shape"/>
<feColorMatrix in="SourceAlpha" type="matrix" values="0 0 0 0 0 0 0 0 0 0 0 0 0 0 0 0 0 0 127 0" result="hardAlpha"/>
<feOffset/>
<feGaussianBlur stdDeviation="1"/>
<feComposite in2="hardAlpha" operator="arithmetic" k2="-1" k3="1"/>
<feColorMatrix type="matrix" values="0 0 0 0 1 0 0 0 0 1 0 0 0 0 1 0 0 0 0.5 0"/>
<feBlend mode="normal" in2="shape" result="effect2_innerShadow_1_6081"/>
</filter>
<filter id="filter12_bi_1_6081" x="182" y="28" width="214" height="214" filterUnits="userSpaceOnUse" color-interpolation-filters="sRGB">
<feFlood flood-opacity="0" result="BackgroundImageFix"/>
<feGaussianBlur in="BackgroundImageFix" stdDeviation="32"/>
<feComposite in2="SourceAlpha" operator="in" result="effect1_backgroundBlur_1_6081"/>
<feBlend mode="normal" in="SourceGraphic" in2="effect1_backgroundBlur_1_6081" result="shape"/>
<feColorMatrix in="SourceAlpha" type="matrix" values="0 0 0 0 0 0 0 0 0 0 0 0 0 0 0 0 0 0 127 0" result="hardAlpha"/>
<feOffset/>
<feGaussianBlur stdDeviation="1"/>
<feComposite in2="hardAlpha" operator="arithmetic" k2="-1" k3="1"/>
<feColorMatrix type="matrix" values="0 0 0 0 1 0 0 0 0 1 0 0 0 0 1 0 0 0 0.5 0"/>
<feBlend mode="normal" in2="shape" result="effect2_innerShadow_1_6081"/>
</filter>
<filter id="filter13_bi_1_6081" x="-3" y="213" width="214" height="214" filterUnits="userSpaceOnUse" color-interpolation-filters="sRGB">
<feFlood flood-opacity="0" result="BackgroundImageFix"/>
<feGaussianBlur in="BackgroundImageFix" stdDeviation="32"/>
<feComposite in2="SourceAlpha" operator="in" result="effect1_backgroundBlur_1_6081"/>
<feBlend mode="normal" in="SourceGraphic" in2="effect1_backgroundBlur_1_6081" result="shape"/>
<feColorMatrix in="SourceAlpha" type="matrix" values="0 0 0 0 0 0 0 0 0 0 0 0 0 0 0 0 0 0 127 0" result="hardAlpha"/>
<feOffset/>
<feGaussianBlur stdDeviation="1"/>
<feComposite in2="hardAlpha" operator="arithmetic" k2="-1" k3="1"/>
<feColorMatrix type="matrix" values="0 0 0 0 1 0 0 0 0 1 0 0 0 0 1 0 0 0 0.5 0"/>
<feBlend mode="normal" in2="shape" result="effect2_innerShadow_1_6081"/>
</filter>
<filter id="filter14_bi_1_6081" x="-3" y="306" width="214" height="214" filterUnits="userSpaceOnUse" color-interpolation-filters="sRGB">
<feFlood flood-opacity="0" result="BackgroundImageFix"/>
<feGaussianBlur in="BackgroundImageFix" stdDeviation="32"/>
<feComposite in2="SourceAlpha" operator="in" result="effect1_backgroundBlur_1_6081"/>
<feBlend mode="normal" in="SourceGraphic" in2="effect1_backgroundBlur_1_6081" result="shape"/>
<feColorMatrix in="SourceAlpha" type="matrix" values="0 0 0 0 0 0 0 0 0 0 0 0 0 0 0 0 0 0 127 0" result="hardAlpha"/>
<feOffset/>
<feGaussianBlur stdDeviation="1"/>
<feComposite in2="hardAlpha" operator="arithmetic" k2="-1" k3="1"/>
<feColorMatrix type="matrix" values="0 0 0 0 1 0 0 0 0 1 0 0 0 0 1 0 0 0 0.5 0"/>
<feBlend mode="normal" in2="shape" result="effect2_innerShadow_1_6081"/>
</filter>
<filter id="filter15_bi_1_6081" x="89" y="306" width="214" height="214" filterUnits="userSpaceOnUse" color-interpolation-filters="sRGB">
<feFlood flood-opacity="0" result="BackgroundImageFix"/>
<feGaussianBlur in="BackgroundImageFix" stdDeviation="32"/>
<feComposite in2="SourceAlpha" operator="in" result="effect1_backgroundBlur_1_6081"/>
<feBlend mode="normal" in="SourceGraphic" in2="effect1_backgroundBlur_1_6081" result="shape"/>
<feColorMatrix in="SourceAlpha" type="matrix" values="0 0 0 0 0 0 0 0 0 0 0 0 0 0 0 0 0 0 127 0" result="hardAlpha"/>
<feOffset/>
<feGaussianBlur stdDeviation="1"/>
<feComposite in2="hardAlpha" operator="arithmetic" k2="-1" k3="1"/>
<feColorMatrix type="matrix" values="0 0 0 0 1 0 0 0 0 1 0 0 0 0 1 0 0 0 0.5 0"/>
<feBlend mode="normal" in2="shape" result="effect2_innerShadow_1_6081"/>
</filter>
<filter id="filter16_bi_1_6081" x="367" y="306" width="214" height="214" filterUnits="userSpaceOnUse" color-interpolation-filters="sRGB">
<feFlood flood-opacity="0" result="BackgroundImageFix"/>
<feGaussianBlur in="BackgroundImageFix" stdDeviation="32"/>
<feComposite in2="SourceAlpha" operator="in" result="effect1_backgroundBlur_1_6081"/>
<feBlend mode="normal" in="SourceGraphic" in2="effect1_backgroundBlur_1_6081" result="shape"/>
<feColorMatrix in="SourceAlpha" type="matrix" values="0 0 0 0 0 0 0 0 0 0 0 0 0 0 0 0 0 0 127 0" result="hardAlpha"/>
<feOffset/>
<feGaussianBlur stdDeviation="1"/>
<feComposite in2="hardAlpha" operator="arithmetic" k2="-1" k3="1"/>
<feColorMatrix type="matrix" values="0 0 0 0 1 0 0 0 0 1 0 0 0 0 1 0 0 0 0.5 0"/>
<feBlend mode="normal" in2="shape" result="effect2_innerShadow_1_6081"/>
</filter>
<linearGradient id="paint0_linear_1_6081" x1="219.308" y1="494.79" x2="352.235" y2="620.967" gradientUnits="userSpaceOnUse">
<stop stop-color="#FF00D6"/>
<stop offset="1" stop-color="#260320"/>
</linearGradient>
<linearGradient id="paint1_linear_1_6081" x1="33.5" y1="254" x2="142.5" y2="363" gradientUnits="userSpaceOnUse">
<stop stop-color="#5956F5"/>
<stop offset="1" stop-color="#24227D"/>
</linearGradient>
<linearGradient id="paint2_linear_1_6081" x1="392.678" y1="100.454" x2="567.586" y2="227.81" gradientUnits="userSpaceOnUse">
<stop stop-color="#00FF75"/>
<stop offset="1" stop-color="#00391A"/>
</linearGradient>
<linearGradient id="paint3_linear_1_6081" x1="180" y1="161.991" x2="180" y2="320" gradientUnits="userSpaceOnUse">
<stop stop-color="#5956F5"/>
<stop offset="1" stop-color="#00FF75"/>
</linearGradient>
<linearGradient id="paint4_linear_1_6081" x1="316.232" y1="490.515" x2="316.232" y2="320" gradientUnits="userSpaceOnUse">
<stop stop-color="#FF00D6"/>
<stop offset="1" stop-color="#00FF75"/>
</linearGradient>
<clipPath id="clip0_1_6081">
<rect width="600" height="600" fill="white" transform="translate(0 24)"/>
</clipPath>
</defs>
</svg>
