<svg width="193" height="36" viewBox="0 0 193 36" fill="none" xmlns="http://www.w3.org/2000/svg">
<path d="M26.7048 0.196777L35.6064 9.09838L35.6064 26.9016H26.7048V35.8032H17.8032V26.9016L26.7048 26.9016L26.7048 18C26.7048 13.0838 22.7194 9.09838 17.8032 9.09838L8.90156 9.09839L8.9016 35.8032H0V18V9.09839L8.90156 9.09839L8.90155 0.196777H26.7048Z" fill="white"/>
<path d="M26.9548 27.1516H35.0028L26.9548 35.1996V27.1516ZM26.9548 8.84838L26.9548 0.800331L35.0028 8.84838H26.9548Z" fill="#0C5153" stroke="white" stroke-width="0.5"/>
<path d="M63.2229 10.2139V25.7861H61.8941L52.9245 12.4813V25.7861H51.6064V10.2139H52.9245L61.9155 23.5187V10.2139H63.2229Z" fill="white"/>
<path d="M86.8497 17.1658V18.8342C86.8497 19.9251 86.7068 20.9127 86.421 21.7968C86.1424 22.6738 85.7352 23.426 85.1994 24.0535C84.6707 24.6809 84.0349 25.1622 83.2919 25.4973C82.5489 25.8324 81.713 26 80.7843 26C79.877 26 79.0483 25.8324 78.2981 25.4973C77.5551 25.1622 76.9157 24.6809 76.3799 24.0535C75.8441 23.426 75.4297 22.6738 75.1368 21.7968C74.8439 20.9127 74.6974 19.9251 74.6974 18.8342V17.1658C74.6974 16.0749 74.8403 15.0909 75.1261 14.2139C75.419 13.3298 75.8334 12.574 76.3692 11.9465C76.905 11.3191 77.5444 10.8378 78.2874 10.5027C79.0304 10.1676 79.8555 10 80.7629 10C81.6916 10 82.5275 10.1676 83.2705 10.5027C84.0135 10.8378 84.6529 11.3191 85.1887 11.9465C85.7245 12.574 86.1353 13.3298 86.421 14.2139C86.7068 15.0909 86.8497 16.0749 86.8497 17.1658ZM85.5423 18.8342V17.1444C85.5423 16.2246 85.4351 15.3975 85.2208 14.6631C85.0136 13.9287 84.7029 13.3012 84.2885 12.7807C83.8813 12.2602 83.3812 11.861 82.7882 11.5829C82.1953 11.3048 81.5201 11.1658 80.7629 11.1658C80.027 11.1658 79.3662 11.3048 78.7803 11.5829C78.1945 11.861 77.6944 12.2602 77.2801 12.7807C76.8728 13.3012 76.5585 13.9287 76.337 14.6631C76.1227 15.3975 76.0155 16.2246 76.0155 17.1444V18.8342C76.0155 19.7611 76.1227 20.5954 76.337 21.3369C76.5585 22.0713 76.8764 22.7023 77.2908 23.2299C77.7051 23.7504 78.2052 24.1497 78.7911 24.4278C79.384 24.7059 80.0484 24.8449 80.7843 24.8449C81.5487 24.8449 82.2238 24.7059 82.8097 24.4278C83.3955 24.1497 83.892 23.7504 84.2992 23.2299C84.7064 22.7023 85.0136 22.0713 85.2208 21.3369C85.4351 20.5954 85.5423 19.7611 85.5423 18.8342Z" fill="white"/>
<path d="M102.943 23.8503L107.862 10.2139H109.298L103.489 25.7861H102.429L102.943 23.8503ZM97.8635 10.2139L102.761 23.8503L103.297 25.7861H102.225L96.4275 10.2139H97.8635Z" fill="white"/>
<path d="M124.041 11.1444L118.64 25.7861H117.268L123.162 10.2139H124.116L124.041 11.1444ZM128.949 25.7861L123.537 11.1444L123.462 10.2139H124.416L130.32 25.7861H128.949ZM127.984 20.2888V21.4225H119.701V20.2888H127.984Z" fill="white"/>
<path d="M146.06 19.4439H141.613V18.3209H146.06C146.989 18.3209 147.743 18.1711 148.321 17.8717C148.907 17.5651 149.332 17.1515 149.596 16.631C149.868 16.1105 150.004 15.5258 150.004 14.877C150.004 14.2424 149.868 13.6578 149.596 13.123C149.332 12.5882 148.907 12.1604 148.321 11.8396C147.743 11.5116 146.989 11.3476 146.06 11.3476H142.074V25.7861H140.756V10.2139H146.06C147.203 10.2139 148.164 10.41 148.943 10.8021C149.729 11.1943 150.322 11.7398 150.722 12.4385C151.122 13.1373 151.322 13.943 151.322 14.8556C151.322 15.8111 151.122 16.6346 150.722 17.3262C150.322 18.0107 149.732 18.5348 148.953 18.8984C148.175 19.262 147.21 19.4439 146.06 19.4439Z" fill="white"/>
<path d="M166.043 11.1444L160.642 25.7861H159.271L165.165 10.2139H166.118L166.043 11.1444ZM170.951 25.7861L165.54 11.1444L165.465 10.2139H166.418L172.323 25.7861H170.951ZM169.987 20.2888V21.4225H161.703V20.2888H169.987Z" fill="white"/>
<path d="M181.59 10.2139L186.316 18.6952L191.085 10.2139H192.606L186.98 19.9144V25.7861H185.662V19.9144L180.026 10.2139H181.59Z" fill="white"/>
</svg>
