<svg width="88" height="88" viewBox="0 0 88 88" fill="none" xmlns="http://www.w3.org/2000/svg">
<path d="M7.33334 40.3333L17.6243 28.7559C20.4076 25.6247 24.397 23.8333 28.5863 23.8333H29.3333" stroke="#00E175" stroke-width="3" stroke-linecap="round" stroke-linejoin="round"/>
<path d="M7.33334 71.5012L27.5 71.5001L42.1667 60.5012C42.1667 60.5012 45.1334 58.4937 49.5 55.0004C58.6667 47.6675 49.5 36.0563 40.3333 42.1656C32.8683 47.1406 25.6667 51.3345 25.6667 51.3345" stroke="#00E175" stroke-width="3" stroke-linecap="round" stroke-linejoin="round"/>
<path d="M29.3333 49.4999V25.6666C29.3333 21.6165 32.6166 18.3333 36.6667 18.3333H73.3333C77.3835 18.3333 80.6667 21.6165 80.6667 25.6666V47.6666C80.6667 51.7168 77.3835 54.9999 73.3333 54.9999H49.5" stroke="#00E175" stroke-width="3"/>
<path d="M66.9167 43.9999C68.75 38.4999 68.75 34.8333 66.9167 29.3333" stroke="#00E175" stroke-width="3" stroke-linecap="round" stroke-linejoin="round"/>
<path d="M58.6667 33C59.4975 34.8333 59.4975 38.5 58.6667 40.3333" stroke="#00E175" stroke-width="3" stroke-linecap="round" stroke-linejoin="round"/>
</svg>
