<svg width="88" height="88" viewBox="0 0 88 88" fill="none" xmlns="http://www.w3.org/2000/svg">
<path d="M55 44V55" stroke="#00E175" stroke-width="3" stroke-linecap="round" stroke-linejoin="round"/>
<path d="M44 11V22" stroke="#00E175" stroke-width="3" stroke-linecap="round" stroke-linejoin="round"/>
<path d="M66 44V55" stroke="#00E175" stroke-width="3" stroke-linecap="round" stroke-linejoin="round"/>
<path d="M44 66H77" stroke="#00E175" stroke-width="3" stroke-linecap="round" stroke-linejoin="round"/>
<path d="M66 77H77" stroke="#00E175" stroke-width="3" stroke-linecap="round" stroke-linejoin="round"/>
<path d="M22 44H33" stroke="#00E175" stroke-width="3" stroke-linecap="round" stroke-linejoin="round"/>
<path d="M22 22.0407L22.0367 22" stroke="#00E175" stroke-width="3" stroke-linecap="round" stroke-linejoin="round"/>
<path d="M44 44.0407L44.0367 44" stroke="#00E175" stroke-width="3" stroke-linecap="round" stroke-linejoin="round"/>
<path d="M11 44.0407L11.0367 44" stroke="#00E175" stroke-width="3" stroke-linecap="round" stroke-linejoin="round"/>
<path d="M44 33.0407L44.0367 33" stroke="#00E175" stroke-width="3" stroke-linecap="round" stroke-linejoin="round"/>
<path d="M44 55.0407L44.0367 55" stroke="#00E175" stroke-width="3" stroke-linecap="round" stroke-linejoin="round"/>
<path d="M55 77.0407L55.0367 77" stroke="#00E175" stroke-width="3" stroke-linecap="round" stroke-linejoin="round"/>
<path d="M44 77.0407L44.0367 77" stroke="#00E175" stroke-width="3" stroke-linecap="round" stroke-linejoin="round"/>
<path d="M77 44.0407L77.0367 44" stroke="#00E175" stroke-width="3" stroke-linecap="round" stroke-linejoin="round"/>
<path d="M77 55.0407L77.0367 55" stroke="#00E175" stroke-width="3" stroke-linecap="round" stroke-linejoin="round"/>
<path d="M66 22.0407L66.0367 22" stroke="#00E175" stroke-width="3" stroke-linecap="round" stroke-linejoin="round"/>
<path d="M33 13.2V30.8C33 32.015 32.015 33 30.8 33H13.2C11.985 33 11 32.015 11 30.8V13.2C11 11.985 11.985 11 13.2 11H30.8C32.015 11 33 11.985 33 13.2Z" stroke="#00E175" stroke-width="3" stroke-linecap="round" stroke-linejoin="round"/>
<path d="M77 13.2V30.8C77 32.015 76.0151 33 74.8 33H57.2C55.9849 33 55 32.015 55 30.8V13.2C55 11.985 55.9849 11 57.2 11H74.8C76.0151 11 77 11.985 77 13.2Z" stroke="#00E175" stroke-width="3" stroke-linecap="round" stroke-linejoin="round"/>
<path d="M22 66.0407L22.0367 66" stroke="#00E175" stroke-width="3" stroke-linecap="round" stroke-linejoin="round"/>
<path d="M33 57.2V74.8C33 76.0151 32.015 77 30.8 77H13.2C11.985 77 11 76.0151 11 74.8V57.2C11 55.9849 11.985 55 13.2 55H30.8C32.015 55 33 55.9849 33 57.2Z" stroke="#00E175" stroke-width="3" stroke-linecap="round" stroke-linejoin="round"/>
</svg>
