<svg width="21" height="18" viewBox="0 0 21 18" fill="none" xmlns="http://www.w3.org/2000/svg">
<path fill-rule="evenodd" clip-rule="evenodd" d="M3.6176 9.81028C3.61244 9.80865 3.60728 9.80703 3.60214 9.80541C3.57967 9.79834 3.55736 9.79132 3.53522 9.78436C2.74351 9.53541 2.16211 9.35259 2.22031 8.88832C2.25475 8.61361 2.63305 8.33266 3.35523 8.04548C3.40131 8.0254 3.44723 8.00539 3.49299 7.98546C3.50278 7.98119 3.51257 7.97693 3.52234 7.97267C7.87689 6.07583 10.7867 4.8227 12.2519 4.21329C16.4885 2.45113 17.3689 2.14503 17.9427 2.13481C18.0689 2.1327 18.351 2.16397 18.5338 2.31229C18.6881 2.43752 18.7306 2.60669 18.7509 2.72543C18.7712 2.84416 18.7966 3.11464 18.7764 3.32598C18.5469 5.73824 17.5534 11.5922 17.0481 14.2939C16.8342 15.4372 16.4131 15.8205 16.0055 15.858C15.3039 15.9225 14.7361 15.5177 14.104 15.0671C13.9379 14.9487 13.7674 14.8271 13.5888 14.71C12.8879 14.2506 12.3462 13.8817 11.803 13.5118C11.3057 13.1731 10.8072 12.8337 10.1843 12.4231C8.96841 11.6219 9.37028 11.112 10.0219 10.4762C10.0651 10.4341 10.1093 10.3915 10.1542 10.3482C10.2714 10.2352 10.3933 10.1177 10.5128 9.9935C10.5662 9.93805 10.8274 9.69525 11.1956 9.35295C11.866 8.72964 12.8913 7.77643 13.6631 7.02381C13.9951 6.69999 14.2803 6.41331 14.47 6.20602C14.6161 6.0464 14.7056 5.93386 14.7164 5.88768C14.7259 5.8474 14.7346 5.69725 14.6454 5.61797C14.5562 5.53868 14.4246 5.5658 14.3296 5.58736C14.3056 5.5928 14.2181 5.64212 14.0669 5.73533C13.8636 5.86068 13.5453 6.06539 13.112 6.34947C12.2796 6.89522 11.0227 7.73389 9.34124 8.86549C9.20911 8.95441 9.07435 9.04515 8.93697 9.13769C8.60487 9.36141 8.25744 9.59571 7.8947 9.84057C7.28586 10.2586 6.73439 10.4623 6.24029 10.4517C5.69559 10.4399 4.64781 10.1437 3.86889 9.89049C3.7834 9.86271 3.69949 9.83609 3.6176 9.81028ZM7.72397 11.8766C7.76609 12.0988 7.8424 12.3229 7.95811 12.5445C8.26519 13.1326 8.77374 13.549 9.23989 13.8562C9.85175 14.2594 10.3408 14.5925 10.8389 14.9317L10.9058 14.9772C11.4275 15.3324 11.9632 15.6966 12.6479 16.1454C12.796 16.2425 12.9348 16.3414 13.0998 16.459C13.1352 16.4842 13.1717 16.5102 13.2099 16.5373C13.409 16.6788 13.6542 16.8507 13.9174 17.0053C14.4534 17.3202 15.2135 17.6544 16.1628 17.567C17.8005 17.4163 18.4906 15.9162 18.7351 14.6095C19.2393 11.9138 20.2471 5.98825 20.485 3.48859C20.5237 3.08208 20.4797 2.65249 20.4426 2.43591C20.4039 2.21012 20.2706 1.51137 19.6152 0.979577C19.2511 0.684155 18.8632 0.556998 18.616 0.497903C18.3578 0.436177 18.1114 0.415484 17.9139 0.418794L17.9121 0.418826C17.317 0.429421 16.7206 0.600655 15.8854 0.903759C15.0206 1.21758 13.7049 1.75016 11.5928 2.62864C10.0962 3.25112 7.12557 4.53078 2.69391 6.46153C2.28016 6.62757 1.85988 6.83137 1.50661 7.09372C1.1904 7.32855 0.622558 7.83586 0.517381 8.67484C0.440678 9.28668 0.621691 9.86113 0.984363 10.3069C1.29238 10.6855 1.67138 10.8981 1.91335 11.0153C2.26991 11.188 2.75467 11.3395 3.1095 11.4504C3.19439 11.4769 3.27184 11.5011 3.33832 11.5227C3.7513 11.6569 4.24764 11.8066 4.72498 11.9263C5.16249 12.036 5.72252 12.1571 6.20322 12.1675C6.73803 12.1791 7.24767 12.0659 7.72397 11.8766ZM3.39606 7.91892C3.39629 7.91886 3.40055 7.92094 3.40817 7.92538C3.39964 7.92121 3.39583 7.91899 3.39606 7.91892Z" fill="#0F1F39"/>
</svg>
