<svg width="21" height="16" viewBox="0 0 21 16" fill="none" xmlns="http://www.w3.org/2000/svg">
<path fill-rule="evenodd" clip-rule="evenodd" d="M18.8598 3.5138L18.8596 3.51298C18.7465 3.08978 18.4102 2.75353 17.987 2.6404L17.9862 2.64018C17.7279 2.57094 17.1583 2.49781 16.3429 2.43831C15.563 2.38141 14.6553 2.34289 13.7845 2.31701C12.9156 2.2912 12.0936 2.27826 11.4881 2.27178C11.1856 2.26855 10.9377 2.26693 10.7658 2.26612C10.6799 2.26572 10.613 2.26552 10.5678 2.26542H10.4322C10.387 2.26552 10.3201 2.26572 10.2342 2.26612C10.0623 2.26693 9.81444 2.26855 9.51194 2.27178C8.90644 2.27826 8.08436 2.2912 7.21552 2.31701C6.34466 2.34289 5.43696 2.38141 4.65714 2.43831C3.84172 2.49781 3.27214 2.57094 3.0138 2.64018L3.01298 2.6404C2.58978 2.75353 2.25353 3.08978 2.1404 3.51298L2.14018 3.5138C1.96974 4.14974 1.86835 5.23056 1.81588 6.24341C1.79062 6.73088 1.77794 7.17245 1.77161 7.49224C1.76844 7.65185 1.76687 7.78041 1.76609 7.86835C1.7657 7.9123 1.76551 7.94605 1.76541 7.96841L1.76533 7.99322V8.00678L1.76541 8.03159C1.76551 8.05395 1.7657 8.0877 1.76609 8.13165C1.76687 8.21959 1.76844 8.34815 1.77161 8.50776C1.77794 8.82755 1.79062 9.26912 1.81588 9.75659C1.86835 10.7694 1.96974 11.8503 2.14018 12.4862L2.1404 12.487C2.25353 12.9102 2.58978 13.2465 3.01298 13.3596L3.0138 13.3598C3.27214 13.4291 3.84172 13.5022 4.65714 13.5617C5.43696 13.6186 6.34465 13.6571 7.21552 13.683C8.08436 13.7088 8.90644 13.7217 9.51194 13.7282C9.81444 13.7315 10.0623 13.7331 10.2342 13.7339C10.3201 13.7343 10.387 13.7345 10.4322 13.7346H10.5678C10.613 13.7345 10.6799 13.7343 10.7658 13.7339C10.9377 13.7331 11.1856 13.7315 11.4881 13.7282C12.0936 13.7217 12.9156 13.7088 13.7845 13.683C14.6553 13.6571 15.563 13.6186 16.3429 13.5617C17.1583 13.5022 17.7279 13.4291 17.9862 13.3598L17.987 13.3596C18.4102 13.2465 18.7465 12.9102 18.8596 12.487L18.8598 12.4862C19.0303 11.8503 19.1316 10.7694 19.1841 9.75659C19.2094 9.26912 19.2221 8.82755 19.2284 8.50776C19.2316 8.34815 19.2331 8.21959 19.2339 8.13165C19.2343 8.0877 19.2345 8.05395 19.2346 8.0316L19.2347 8.00678L19.2347 8.00017L19.2347 7.99322L19.2346 7.96841C19.2345 7.94605 19.2343 7.9123 19.2339 7.86835C19.2331 7.78041 19.2316 7.65185 19.2284 7.49224C19.2221 7.17245 19.2094 6.73088 19.1841 6.24341C19.1316 5.23056 19.0303 4.14974 18.8598 3.5138ZM20.5 8C20.5 8 20.5 11.2542 20.082 12.8138C19.852 13.6742 19.1742 14.352 18.3138 14.582C16.7542 15 10.5 15 10.5 15C10.5 15 4.24578 15 2.68622 14.582C1.82578 14.352 1.148 13.6742 0.918 12.8138C0.5 11.2542 0.5 8 0.5 8C0.5 8 0.5 4.74578 0.918 3.18622C1.148 2.32578 1.82578 1.648 2.68622 1.418C4.24578 1 10.5 1 10.5 1C10.5 1 16.7542 1 18.3138 1.418C19.1742 1.648 19.852 2.32578 20.082 3.18622C20.5 4.74578 20.5 8 20.5 8Z" fill="#0F1F39" stroke="#0F1F39" stroke-width="0.5"/>
<path d="M8.5 10.8481V4.84814L13.696 7.84814L8.5 10.8481Z" fill="#0F1F39"/>
</svg>
